# xmcd
#
# Track frame offsets: 
#        150
#        15553
#        27653
#        48782
#        61489
#        76269
#        95916
#        112989
#        125690
#        159584
#        177188
#        192684
#        212949
#        225196
#        261598
#        273353
#        288852
#
# Disc length: 4021 seconds
#
# Revision: 0
# Processed by: cddbd v1.5.2PL0 Copyright (c) Steve Scherf et al.
# Submitted via: ExactAudioCopy v0.95b4
#
DISCID=f40fb311
DTITLE=ZZ Top - Live At Pine Knob, Clarkston, MI 1980
DYEAR=1980
DGENRE=Rock
TTITLE0=I Thank You
TTITLE1=Waitin' For The Bus
TTITLE2=Jesus Just Left Chicago
TTITLE3=Precious And Grace
TTITLE4=Francine
TTITLE5=I'm Bad, I'm Nationwide
TTITLE6=Manic Mechanic
TTITLE7=Herd It On The X
TTITLE8=Fool For Your Stockings
TTITLE9=Nasty Dogs And Funky Kings
TTITLE10=We're Barefootin'
TTITLE11=Cheap Sunglasses
TTITLE12=Beer Drinkers And Hell Raisers
TTITLE13=La Grange - Sloppy Drunk - BBQ Medley
TTITLE14=She Loves My Automobile
TTITLE15=Hi Fi Mama
TTITLE16=Tush
EXTD=
EXTT0=
EXTT1=
EXTT2=
EXTT3=
EXTT4=
EXTT5=
EXTT6=
EXTT7=
EXTT8=
EXTT9=
EXTT10=
EXTT11=
EXTT12=
EXTT13=
EXTT14=
EXTT15=
EXTT16=
PLAYORDER=
